<?xml version='1.0' encoding='UTF-8'?>
<svg xmlns="http://www.w3.org/2000/svg" xmlns:xlink="http://www.w3.org/1999/xlink" version="1.1" width="64px" height="64px" viewBox="370 370 64 64" preserveAspectRatio="xMidYMid meet"><defs><g id="Layer0_11_FILL">
<path fill="#694C39" stroke="none" d=" M 492 462.55 L 492 452.6 Q 492 452.15 491.85 451.8 491 446.85 484.95 446.05 472 444.05 459.15 446 L 459.1 446 Q 452.95 446.85 452.15 451.85 452 452.2 452 452.6 L 452 462.55 Q 451.95 464.4 452.85 465.5 451.85 465.85 451 466.6 L 450.95 466.65 Q 448.95 468.45 449 470.9 L 449 471.05 Q 449 473.55 450.95 475.2 452.15 476.4 453.7 476.8 453.7 476.846875 453.75 476.9 L 453.7 476.85 Q 453.75 477.4 453.9 477.85 453.05 478.3 452.35 479.05 452.3 479.05 452.3 479.1 449.95 481.35 450 484.4 450 485.85 450.55 487.15 450.45 488.4 450.85 489.85 L 450.85 489.9 Q 451.5 492.4 453.65 493.95 453.7 494 453.8 494.05 453.9 494.1 454 494.15 454 494.45 454.05 494.75 454 496.6 456.75 497.9 L 456.7 497.9 Q 456.8 497.95 456.9 498 457 498.05 457.05 498.05 457.6 498.3 458.3 498.5 458.35 498.5 458.4 498.55 460.1 499 462.2 499 464.3 499 466 498.55 466.05 498.5 466.15 498.5 466.7 498.25 467.25 498.05 467.3 498.05 467.4 498 468.6 497.4 469.25 496.8 469.35 496.7 469.4 496.65 470.1 495.8 470.3 495 470.35 494.75 470.35 494.5 470.35 494.4 470.35 494.25 470.35 494.2 470.35 494.05 470.35 493.7 470.35 493.35 471.1 493.25 472 493.25 472.9 493.25 473.7 493.35 473.65 493.7 473.65 494.05 473.65 494.45 473.7 494.75 473.65 496.6 476.4 497.9 L 476.35 497.9 Q 476.55 498 476.9 498.1 477.35 498.3 477.9 498.5 477.95 498.5 478.05 498.55 479.75 499 481.85 499 484 499 485.65 498.55 485.7 498.5 485.8 498.5 486.35 498.3 486.9 498.1 487 498.05 487.15 498 488.25 497.4 488.9 496.8 489 496.7 489.05 496.65 489.75 495.8 489.95 495 490 494.75 490 494.5 490 494.4 490 494.25 490 494.2 490 494.15 490.1 494.1 490.25 494.05 490.3 494 490.35 493.95 492.5 492.4 493.2 489.9 L 493.2 489.85 Q 493.55 488.4 493.45 487.15 494 485.85 494 484.4 494.05 481.35 491.7 479.1 491.7 479.05 491.65 479.05 491 478.35 490.2 477.9 490.25 477.7 490.3 477.5 L 490.3 477.45 Q 490.35 477.25 490.4 477.1 490.45 476.9 490.45 476.75 491.85 476.35 493 475.3 495.05 473.55 495 471.05 495 468.4 493.05 466.65 L 493 466.6 Q 492.15 465.85 491.15 465.5 492 464.4 492 462.55 Z"/>
</g>

<g id="Layer0_11_MEMBER_0_MEMBER_0_FILL">
<path fill="#FFE0B1" stroke="none" d=" M 489.2 492.3 Q 490.75 491.2 491.25 489.35 491.6 488 491.4 486.8 491.25 486 490.8 485.15 489.65 483.2 487.3 482.55 485.5 482.05 483.75 482.9 483.5 483 483.2 483.15 483.15 483.2 483.1 483.25 483.05 483.25 483 483.3 481.95 483.95 481.9 485.7 481.9 487.65 483.05 489.55 484.15 491.55 485.8 492.45 487.3 493.35 488.45 492.75 488.55 492.7 488.65 492.6 488.95 492.45 489.2 492.3 Z"/>

<path fill="#2ECC71" stroke="none" d=" M 490.25 480.45 Q 489.15 479.3 487.55 479 487.25 480.35 483.2 483.15 483.5 483 483.75 482.9 485.5 482.05 487.3 482.55 489.65 483.2 490.8 485.15 491.25 486 491.4 486.8 492 485.7 492 484.4 492 482.15 490.25 480.45 Z"/>
</g>

<g id="Layer0_11_MEMBER_0_MEMBER_1_FILL">
<path fill="#333333" stroke="none" d=" M 462.2 489 Q 459.65 489 457.8 490.5 456 491.95 456 494.05 456 494.2 456.05 494.25 456.05 494.4 456.05 494.5 456.15 495.4 457.6 496.1 457.7 496.15 457.8 496.2 458.3 496.4 458.9 496.6 460.4 497 462.2 497 464 497 465.45 496.6 466 496.4 466.5 496.2 467.4 495.75 467.9 495.3 468.25 494.9 468.35 494.5 468.35 494.4 468.35 494.25 468.35 494.2 468.35 494.05 468.35 491.95 466.5 490.5 464.75 489 462.2 489 Z"/>
</g>

<g id="Layer0_11_MEMBER_0_MEMBER_2_FILL">
<path fill="#E74C3C" stroke="none" d=" M 488.35 490.05 Q 488.4 489.85 488.45 489.65 488.45 489.5 488.5 489.3 488.55 488.85 488.65 488.35 L 488.65 488.3 Q 489.15 480.75 485.45 477.45 L 458.6 477.45 Q 454.95 481 455.5 488.35 455.55 489 455.7 489.65 455.75 490.1 455.85 490.4 456 490.95 456.25 491.35 457.25 493 459.75 493 L 465.8 493 Q 466 492.85 466.25 492.65 468.6 491.25 472 491.25 475.4 491.25 477.75 492.65 477.95 492.85 478.2 493 L 484.25 493 Q 487.65 493 488.35 490.05 M 459.5 487.55 L 459.5 486.3 466 486.3 466 487.55 Q 466 488.9 465.05 489.85 464.1 490.8 462.75 490.8 461.4 490.8 460.45 489.85 459.5 488.9 459.5 487.55 M 484.5 486.3 L 484.5 487.55 Q 484.5 488.9 483.55 489.85 482.6 490.8 481.25 490.8 479.9 490.8 478.95 489.85 478 488.9 478 487.55 L 478 486.3 484.5 486.3 Z"/>

<path fill="#CD4335" stroke="none" d=" M 484.5 487.55 L 484.5 486.3 478 486.3 478 487.55 Q 478 488.9 478.95 489.85 479.9 490.8 481.25 490.8 482.6 490.8 483.55 489.85 484.5 488.9 484.5 487.55 M 459.5 486.3 L 459.5 487.55 Q 459.5 488.9 460.45 489.85 461.4 490.8 462.75 490.8 464.1 490.8 465.05 489.85 466 488.9 466 487.55 L 466 486.3 459.5 486.3 Z"/>
</g>

<g id="Layer0_11_MEMBER_0_MEMBER_3_FILL">
<path fill="#D7BD93" stroke="none" d=" M 458.55 468.1 Q 457.25 467 455.4 467 453.6 467 452.3 468.1 451 469.3 451 470.9 L 451 471.05 Q 451 472.7 452.3 473.75 453.6 475 455.4 475 457.25 475 458.55 473.75 459.85 472.65 459.85 471.05 459.85 469.3 458.55 468.1 M 488.55 475 Q 490.4 475 491.7 473.75 493 472.65 493 471.05 493 469.3 491.7 468.1 490.4 467 488.55 467 486.7 467 485.4 468.1 484.15 469.3 484.1 470.9 L 484.1 471.05 Q 484.15 472.7 485.4 473.75 486.7 475 488.55 475 Z"/>
</g>

<g id="Layer0_11_MEMBER_0_MEMBER_4_FILL">
<path fill="#2ECC71" stroke="none" d=" M 472 484 Q 475.4 484 477.75 482.45 479.15 481.5 479.75 480.3 L 464.25 480.3 Q 464.8 481.5 466.25 482.45 468.6 484 472 484 Z"/>

<path fill="#FFE0B1" stroke="none" d=" M 488.5 476.2 Q 488.75 474.45 488.85 472.65 472.05 477.1 455.2 472.65 455.4 474.65 455.7 476.6 455.75 477.05 455.85 477.4 456 478.05 456.25 478.5 457.25 480.3 459.75 480.3 L 464.25 480.3 479.75 480.3 484.25 480.3 Q 487.65 480.3 488.35 477.05 488.4 476.8 488.45 476.6 488.45 476.4 488.5 476.2 Z"/>

<path fill="#694C39" stroke="none" d=" M 488.95 465.5 Q 488.75 462.6 488.4 459.65 488.15 458.05 487.3 457.1 486.25 456 484.25 456 L 459.75 456 Q 457.85 456 456.8 457.1 455.9 458.05 455.7 459.75 455.2 462.95 455.05 466.15 455 467.7 455.05 469.3 455.05 471 455.2 472.65 472.05 477.1 488.85 472.65 488.95 471.3 489 469.9 489 469.6 489 469.3 489.05 467.4 488.95 465.5 Z"/>
</g>

<g id="Layer0_11_MEMBER_0_MEMBER_5_FILL">
<path fill="#28B162" stroke="none" d=" M 490 452.6 L 489.95 452.6 Q 489.4 448.65 484.65 448 472 446.05 459.4 447.95 454.55 448.65 454.05 452.6 L 454 452.6 454 460 490 460 490 452.6 Z"/>

<path fill="#24A65B" stroke="none" d=" M 487.35 465 Q 490 465 490 462.55 L 490 460 454 460 454 462.55 Q 453.95 465 456.65 465 L 487.35 465 Z"/>
</g>

<g id="Layer0_11_MEMBER_0_MEMBER_6_FILL">
<path fill="#694C39" stroke="none" d=" M 467.5 462.85 Q 467.75 463 468 463 L 476 463 Q 476.3 463 476.55 462.85 476.8 462.7 476.9 462.45 477.05 462.2 477 461.9 476.85 460.35 475.45 459.2 474.05 458 472 458 470 458 468.5 459.2 467.15 460.35 467 461.95 467 462.2 467.15 462.45 467.25 462.7 467.5 462.85 Z"/>
</g>

<g id="Layer0_11_MEMBER_0_MEMBER_7_FILL">
<path fill="#333333" stroke="none" d=" M 488 494.05 Q 488 491.95 486.2 490.5 484.4 489 481.85 489 479.3 489 477.5 490.5 475.65 491.95 475.65 494.05 475.65 494.2 475.7 494.25 475.7 494.4 475.7 494.5 475.8 495.4 477.25 496.1 477.35 496.15 477.5 496.2 478 496.4 478.55 496.6 480.05 497 481.85 497 483.7 497 485.1 496.6 485.65 496.4 486.2 496.2 487.05 495.75 487.55 495.3 487.9 494.9 488 494.5 488 494.4 488 494.25 488 494.2 488 494.05 Z"/>
</g>

<g id="Layer0_11_MEMBER_0_MEMBER_8_FILL">
<path fill="#2ECC71" stroke="none" d=" M 452 484.4 Q 452 485.7 452.6 486.8 452.7 486 453.2 485.15 454.35 483.2 456.7 482.55 458.5 482.05 460.25 482.9 460.5 483 460.8 483.15 456.75 480.35 456.45 479 454.85 479.3 453.75 480.45 452 482.15 452 484.4 Z"/>

<path fill="#FFE0B1" stroke="none" d=" M 452.6 486.8 Q 452.4 488 452.75 489.35 453.25 491.2 454.8 492.3 455.05 492.45 455.35 492.6 455.45 492.7 455.55 492.75 456.7 493.35 458.2 492.45 459.85 491.55 460.95 489.55 462.1 487.65 462.1 485.7 462.05 483.95 461 483.3 460.95 483.25 460.9 483.25 460.85 483.2 460.8 483.15 460.5 483 460.25 482.9 458.5 482.05 456.7 482.55 454.35 483.2 453.2 485.15 452.7 486 452.6 486.8 Z"/>
</g>

</defs><g transform="matrix( 1, 0, 0, 1, -70,-70) ">
<use xlink:href="#Layer0_11_FILL"/>
</g>

<g transform="matrix( 1, 0, 0, 1, -70,-70) ">
<use xlink:href="#Layer0_11_MEMBER_0_MEMBER_0_FILL"/>
</g>

<g transform="matrix( 1, 0, 0, 1, -70,-70) ">
<use xlink:href="#Layer0_11_MEMBER_0_MEMBER_1_FILL"/>
</g>

<g transform="matrix( 1, 0, 0, 1, -70,-70) ">
<use xlink:href="#Layer0_11_MEMBER_0_MEMBER_2_FILL"/>
</g>

<g transform="matrix( 1, 0, 0, 1, -70,-70) ">
<use xlink:href="#Layer0_11_MEMBER_0_MEMBER_3_FILL"/>
</g>

<g transform="matrix( 1, 0, 0, 1, -70,-70) ">
<use xlink:href="#Layer0_11_MEMBER_0_MEMBER_4_FILL"/>
</g>

<g transform="matrix( 1, 0, 0, 1, -70,-70) ">
<use xlink:href="#Layer0_11_MEMBER_0_MEMBER_5_FILL"/>
</g>

<g transform="matrix( 1, 0, 0, 1, -70,-70) ">
<use xlink:href="#Layer0_11_MEMBER_0_MEMBER_6_FILL"/>
</g>

<g transform="matrix( 1, 0, 0, 1, -70,-70) ">
<use xlink:href="#Layer0_11_MEMBER_0_MEMBER_7_FILL"/>
</g>

<g transform="matrix( 1, 0, 0, 1, -70,-70) ">
<use xlink:href="#Layer0_11_MEMBER_0_MEMBER_8_FILL"/>
</g>

</svg>