<?xml version='1.0' encoding='UTF-8'?>
<svg xmlns="http://www.w3.org/2000/svg" xmlns:xlink="http://www.w3.org/1999/xlink" version="1.1" width="64px" height="64px" viewBox="592 0 64 64" preserveAspectRatio="xMidYMid meet"><defs><g id="Layer0_40_FILL">
<path fill="#3FA8E5" stroke="none" d=" M 662.3 75.3 Q 662.05 76.35 662 77.6 L 662 126.45 Q 662.05 127.7 662.3 128.75 663.2 132.8 667.3 133.75 668.3 133.95 669.45 134 L 718.6 134 Q 719.8 133.95 720.75 133.75 724.8 132.8 725.75 128.75 725.95 127.7 726 126.45 L 726 77.6 Q 725.95 76.3 725.75 75.3 725.65 75 725.6 74.75 725.2 73.5 724.5 72.55 723.2 70.85 720.75 70.3 719.85 70.1 718.8 70.05 L 669.25 70.05 Q 668.2 70.1 667.3 70.3 663.2 71.2 662.3 75.3 M 664.25 75.8 L 664.25 75.75 Q 664.9 72.9 667.75 72.25 668.45 72.1 669.25 72.05 L 718.7 72.05 Q 719.55 72.1 720.3 72.25 722 72.65 722.9 73.8 L 722.9 73.75 Q 723.4 74.4 723.7 75.3 723.75 75.55 723.85 75.85 723.95 76.65 724 77.7 L 724 126.4 Q 723.95 127.45 723.8 128.4 L 723.8 128.3 Q 723.15 131.15 720.3 131.8 L 720.35 131.8 Q 719.55 131.95 718.6 132 L 669.55 132 Q 668.55 131.95 667.7 131.8 L 667.75 131.8 Q 664.9 131.15 664.25 128.35 L 664.25 128.3 Q 664.05 127.45 664 126.45 L 664 77.7 Q 664.05 76.65 664.25 75.8 Z"/>

<path fill="#2F95D0" stroke="none" d=" M 664.25 75.75 L 664.25 75.8 Q 664.05 76.65 664 77.7 L 664 126.45 Q 664.05 127.45 664.25 128.3 L 664.25 128.35 Q 664.9 131.15 667.75 131.8 L 667.7 131.8 Q 668.55 131.95 669.55 132 L 718.6 132 Q 719.55 131.95 720.35 131.8 L 720.3 131.8 Q 723.15 131.15 723.8 128.3 L 723.8 128.4 Q 723.95 127.45 724 126.4 L 724 77.7 Q 723.95 76.65 723.85 75.85 723.75 75.55 723.7 75.3 723.4 74.4 722.9 73.75 L 722.9 73.8 Q 722 72.65 720.3 72.25 719.55 72.1 718.7 72.05 L 669.25 72.05 Q 668.45 72.1 667.75 72.25 664.9 72.9 664.25 75.75 M 672 76 L 716 76 716 104 672 104 672 76 M 716 113 L 716 128 672 128 672 113 716 113 M 711 98.3 L 707 98.3 707 100.8 711 100.8 711 98.3 M 707 79.2 L 707 81.75 711 81.75 711 79.2 707 79.2 M 681 98.3 L 677 98.3 677 100.8 681 100.8 681 98.3 M 681 81.75 L 681 79.2 677 79.2 677 81.75 681 81.75 Z"/>

<path fill="#2678A8" stroke="none" d=" M 716 128 L 716 113 672 113 672 128 716 128 M 716 76 L 672 76 672 104 716 104 716 76 M 681 79.2 L 681 81.75 677 81.75 677 79.2 681 79.2 M 677 98.3 L 681 98.3 681 100.8 677 100.8 677 98.3 M 707 81.75 L 707 79.2 711 79.2 711 81.75 707 81.75 M 707 98.3 L 711 98.3 711 100.8 707 100.8 707 98.3 Z"/>
</g>

<g id="Layer0_40_MEMBER_0_FILL">
<path fill="#FFFFFF" fill-opacity="0.10196078431372549" stroke="none" d=" M 718.55 110 Q 725.9 109.85 726 105.2 L 726 103.2 Q 725.9 107.85 718.55 108 L 669.45 108 Q 662.1 107.85 662 103.2 L 662 105.2 Q 662.1 109.85 669.45 110 L 718.55 110 Z"/>

<path fill="#000000" fill-opacity="0.10196078431372549" stroke="none" d=" M 726 105.2 Q 725.9 109.85 718.55 110 L 669.45 110 Q 662.1 109.85 662 105.2 L 662 126.45 Q 662.05 127.7 662.3 128.75 663.2 132.8 667.3 133.75 668.3 133.95 669.45 134 L 718.6 134 Q 719.8 133.95 720.75 133.75 724.8 132.8 725.75 128.75 725.95 127.7 726 126.45 L 726 105.2 Z"/>
</g>

</defs><g transform="matrix( 1, 0, 0, 1, -70,-70) ">
<use xlink:href="#Layer0_40_FILL"/>
</g>

<g transform="matrix( 1, 0, 0, 1, -70,-70) ">
<use xlink:href="#Layer0_40_MEMBER_0_FILL"/>
</g>

</svg>